<?xml version="1.0" encoding="iso-8859-1"?>
<!-- Uploaded to: SVG Repo, www.svgrepo.com, Generator: SVG Repo Mixer Tools -->
<svg fill="white" height="800px" width="800px" version="1.1" id="Layer_1" xmlns="http://www.w3.org/2000/svg" xmlns:xlink="http://www.w3.org/1999/xlink" 
	 viewBox="0 0 512.699 512.699" xml:space="preserve">
<g>
	<g>
		<path d="M512.436,382.749c-0.8-1.2-2.4-2-3.6-2h-8.4c-2-128.8-104-234-232-240v-16c7.2-4,11.6-11.6,11.6-20.4
			c0-13.2-10.8-24-24-24s-24,10.8-24,24c0,8.8,4.8,16.4,12,20.8v15.6c-127.6,6-229.6,111.2-231.6,240h-8.4c-1.6,0-2.8,0.8-3.6,2
			s-0.4,2.8,0.4,4l17.6,25.2c8,11.2,16.4,20.4,36.8,20.4h402.4c20.4,0,28.8-9.2,36.8-20.4l17.6-25.2
			C512.836,385.549,512.836,383.949,512.436,382.749z M240.436,104.349c0-8.8,7.2-16,16-16s16,7.2,16,16c0,8.8-7.2,16-16,16
			S240.436,113.149,240.436,104.349z M260.436,127.949v12.4c-1.2,0-2.8,0-4,0s-2.8,0-4,0v-12.4c1.2,0.4,2.4,0.4,4,0.4
			C258.036,128.349,259.236,128.349,260.436,127.949z M256.436,148.349c128.8,0,234,104,236,232.4h-472
			C22.436,252.349,127.636,148.349,256.436,148.349z M488.036,407.549c-7.2,10-13.6,17.2-30,17.2h-402.8c-16.8,0-23.2-7.2-30-17.2
			l-13.2-18.8h489.2L488.036,407.549z"/>
	</g>
</g>
<g>
	<g>
		<path d="M379.636,202.349c-30.8-21.2-66.4-33.6-103.2-37.2c-2,0-4,1.6-4.4,3.6c0,2.4,1.6,4,3.6,4.4c35.6,3.2,70,15.6,99.6,35.6
			c0.8,0.4,1.6,0.8,2.4,0.8c1.2,0,2.4-0.8,3.2-1.6C382.036,205.949,381.636,203.549,379.636,202.349z"/>
	</g>
</g>
<g>
	<g>
		<path d="M425.236,243.149c-8.4-10-17.6-19.2-27.2-27.2c-1.6-1.6-4.4-1.2-5.6,0.4c-1.6,1.6-1.2,4.4,0.4,5.6
			c9.6,8,18.4,16.8,26.4,26.4c0.8,0.8,2,1.6,3.2,1.6c0.8,0,2-0.4,2.4-0.8C426.436,247.149,426.436,244.749,425.236,243.149z"/>
	</g>
</g>
</svg>